inDegrees=yes
name=ik_20190930-094711-sensor_data_quaternions_Walking_00_30
DataType=double
version=3
OpenSimVersion=4.1
endheader
time	pelvis_tilt	pelvis_list	pelvis_rotation	pelvis_tx	pelvis_ty	pelvis_tz	hip_flexion_r	hip_adduction_r	hip_rotation_r	knee_angle_r	knee_angle_r_beta	ankle_angle_r	subtalar_angle_r	mtp_angle_r	hip_flexion_l	hip_adduction_l	hip_rotation_l	knee_angle_l	knee_angle_l_beta	ankle_angle_l	subtalar_angle_l	mtp_angle_l	lumbar_extension	lumbar_bending	lumbar_rotation	arm_flex_r	arm_add_r	arm_rot_r	elbow_flex_r	pro_sup_r	wrist_flex_r	wrist_dev_r	arm_flex_l	arm_add_l	arm_rot_l	elbow_flex_l	pro_sup_l	wrist_flex_l	wrist_dev_l
128	-0.3517654351796181	0.2284221186812576	154.884910099092	0	0.9399999999999999	0	-9.416912560071301	-4.875802658211641	-8.022113153780111	2.044548704725689	0.03568410661484862	11.45984396861838	0	0	28.53164426455583	-16.124237983198	8.445550122726644	24.33890153893886	0.4247939681731979	-16.33732651508474	0	0	0	0	0	0	-14.86879778147793	0	74.99567514217863	45.00000025624445	0	0	0	-14.86879778147793	0	74.99567514217863	45.00000025624445	0	0
128.0078125	-0.4995021735392395	0.3219122091356595	154.61193185719	0	0.9399999999999999	0	-9.916091822752811	-5.733325965000192	-7.891834582799672	2.085658030055629	0.03640159969512958	12.0866821954025	0	0	28.09985769558494	-16.46473237354925	8.696977152646156	24.17677590094929	0.4219643419883835	-17.11391988847255	0	0	0	0	0	0	-14.86886917657045	0	74.9956799284392	45.00000025624177	0	0	0	-14.86886917657045	0	74.9956799284392	45.00000025624177	0	0
128.015625	-0.5914277281587446	0.3522276875328771	154.4008824289287	0	0.9399999999999999	0	-10.35357645044567	-6.672215070619242	-7.90219975136297	2.129980936240933	0.03717518034211569	12.75715891845989	0	0	27.86146980361552	-16.62419618553977	8.957800490787394	24.07205286327681	0.4201365801783086	-17.57953954728588	0	0	0	0	0	0	-14.86893530479077	0	74.99568435853368	45.00000025623933	0	0	0	-14.86893530479077	0	74.99568435853368	45.00000025623933	0	0
128.0234375	-0.6402421323377067	0.3363046182225628	154.2280130262358	0	0.9399999999999999	0	-10.74912006375344	-7.648488483436996	-7.967817360353467	2.145268611950401	0.03744200061822307	13.51350975293127	0	0	27.81938021929479	-16.54254164185678	9.280003394286616	24.0655636730521	0.4200233224430993	-17.72887729677559	0	0	0	0	0	0	-14.86898983197013	0	74.99568800772303	45.00000025623731	0	0	0	-14.86898983197013	0	74.99568800772303	45.00000025623731	0	0
128.03125	-0.7653165108420408	0.2657977397300647	154.1183509196609	0	0.9399999999999999	0	-11.22816884879865	-8.73800759117931	-8.126275896864993	2.128458455590274	0.03714860804196379	14.28417879317546	0	0	27.80981868377546	-16.14868330975907	9.611729958543027	24.14733469865292	0.4214504960725661	-17.54645701328847	0	0	0	0	0	0	-14.86902522860837	0	74.99569038127569	45.000000256236	0	0	0	-14.86902522860837	0	74.99569038127569	45.000000256236	0	0
128.0390625	-0.8925819813334738	0.1677561103456655	154.0322973563765	0	0.9399999999999999	0	-11.71290012794553	-9.871716621725536	-8.324495935015742	2.106484939199273	0.03676509783269987	15.18165779472034	0	0	27.90417928084369	-15.50662431283284	9.947070461785108	24.35565012977973	0.4250862862284406	-17.17432216447056	0	0	0	0	0	0	-14.86905902585818	0	74.99569264716406	45.00000025623476	0	0	0	-14.86905902585818	0	74.99569264716406	45.00000025623476	0	0
128.046875	-1.034819238440481	0.04872360559009267	153.978756021672	0	0.9399999999999999	0	-12.21910808424845	-11.06124151476279	-8.589770974885663	2.080967201807309	0.03631972929755083	16.18467848697092	0	0	28.04999500497267	-14.66192174982728	10.24749091691788	24.64680703136887	0.4301679328010761	-16.53145268777705	0	0	0	0	0	0	-14.86909356754753	0	74.99569496258152	45.00000025623349	0	0	0	-14.86909356754753	0	74.99569496258152	45.00000025623349	0	0
128.0546875	-1.165212822721864	-0.07147293102162011	153.9515436524572	0	0.9399999999999999	0	-12.72892386331417	-12.28593742090413	-8.923792188269553	2.056840825648296	0.03589864459700139	17.29479679632961	0	0	28.22116922568119	-13.72957365149475	10.51054777817376	24.94377366725848	0.435350978365921	-15.79456759396678	0	0	0	0	0	0	-14.869134829126	0	74.99569772814191	45.00000025623196	0	0	0	-14.869134829126	0	74.99569772814191	45.00000025623196	0	0
128.0625	-1.261433667388917	-0.1869128492922429	153.9189751159871	0	0.9399999999999999	0	-13.23094149034644	-13.53988984593472	-9.316420437881998	2.026222192602775	0.03536424863789712	18.5145914344154	0	0	28.36563019179553	-12.76483966734757	10.60736316001341	25.10189009807875	0.4381106306852366	-14.89807779747909	0	0	0	0	0	0	-14.86916478096721	0	74.99569973450069	45.00000025623084	0	0	0	-14.86916478096721	0	74.99569973450069	45.00000025623084	0	0
128.0703125	-1.35504223331211	-0.2991329519519699	153.8841223165948	0	0.9399999999999999	0	-13.74009731585961	-14.85241428671641	-9.79568390095436	2.007481829480974	0.03503716759840237	19.85203817736557	0	0	28.44204036019453	-11.82876001362747	10.51201302070445	25.22604589311035	0.4402775580939691	-14.23023170576331	0	0	0	0	0	0	-14.86919203816624	0	74.995701559826	45.00000025622985	0	0	0	-14.86919203816624	0	74.995701559826	45.00000025622985	0	0
128.078125	-1.375975180862752	-0.494112001751591	154.0021350915498	0	0.9399999999999999	0	-14.17353457052533	-16.27984931926968	-10.54900728069989	2.058424295657432	0.03592628136226741	21.22203161696111	0	0	28.36856226711379	-10.90868147150636	9.925602358238772	25.57153745638661	0.4463075234110023	-12.23280865930649	0	0	0	0	0	0	-14.86922639481349	0	74.99570386033099	45.00000025622857	0	0	0	-14.86922639481349	0	74.99570386033099	45.00000025622857	0	0
128.0859375	-1.21829453887827	-0.738822968464547	154.2133472310778	0	0.9399999999999999	0	-14.4604433384056	-17.77107303623004	-11.49825639413407	2.070714320692828	0.03614078276428759	22.63092005159013	0	0	28.08669445800058	-10.35376822473192	8.540279016543625	25.65967347024069	0.4478457870423392	-9.201079471461389	0	0	0	0	0	0	-14.86939174192045	0	74.99571448638976	45.00000025622313	0	0	0	-14.86939174192045	0	74.99571448638976	45.00000025622313	0	0
128.09375	-1.39768792758106	-0.9486361252161905	154.4752288800714	0	0.9399999999999999	0	-15.08596306144283	-19.48969507584683	-12.58911834335707	2.058711481532054	0.03593129370134477	24.17825745910673	0	0	27.58719173251466	-9.449858735851745	8.486193679663819	24.92788340685761	0.4350736410029266	-8.500896589580714	0	0	0	0	0	0	-14.86943061394693	0	74.99571708634436	45.00000025622171	0	0	0	-14.86943061394693	0	74.99571708634436	45.00000025622171	0	0
128.1015625	-1.908419539925571	-1.131956622282435	154.7708953715795	0	0.9399999999999999	0	-16.09541369248351	-21.3842120998096	-13.88868466965684	2.062057544638379	0.03598969351952966	25.99049021101647	0	0	26.67261060895623	-7.975444280545513	8.417776200900697	24.60415502202839	0.4294235148054934	-7.19187341820793	0	0	0	0	0	0	-14.86947771117093	0	74.995720236012	45.00000025621998	0	0	0	-14.86947771117093	0	74.995720236012	45.00000025621998	0	0
128.109375	-2.396213590260949	-1.464482356493106	155.0173373712677	0	0.9399999999999999	0	-17.02156824138606	-23.56849328858456	-15.50845755673309	2.155092917269582	0.03761346709276397	27.96176847401082	0	0	25.92175834108716	-6.694939511910209	8.055361880509595	24.43854351930234	0.4265330488037483	-5.083612109625107	0	0	0	0	0	0	-14.86952115419206	0	74.99572314010064	45.00000025621837	0	0	0	-14.86952115419206	0	74.99572314010064	45.00000025621837	0	0
128.1171875	-2.578554798214578	-2.026764015478429	155.271496019627	0	0.9399999999999999	0	-17.63859482084395	-25.99177652976743	-17.50911582426624	2.020637000148449	0.03526676864021158	29.57111483511734	0	0	25.64147909623946	-5.225510986422239	7.660032744206772	24.17556409952649	0.4219431920636753	-3.394823035061269	0	0	0	0	0	0	-14.86942001776347	0	74.99571885538957	45.0000002562189	0	0	0	-14.86942001776347	0	74.99571885538957	45.0000002562189	0	0
128.125	-2.46210168642033	-2.697513857157316	155.5500328535483	0	0.9399999999999999	0	-17.963319053167	-28.64622673902569	-19.77740577854728	1.288149849106762	0.02248245612598113	29.88617561874779	0	0	25.81648326624007	-3.663573991664058	7.269260465820702	24.28196487867097	0.4238002359864338	-2.254556475149737	0	0	0	0	0	0	-14.86933256156629	0	74.9957151752165	45.00000025621933	0	0	0	-14.86933256156629	0	74.9957151752165	45.00000025621933	0	0
128.1328125	-2.195450236517595	-3.386209644494158	155.7924717041947	0	0.9399999999999999	0	-17.96378701452966	-31.44196559473848	-22.05946721082337	0.5728340891766179	0.009997840923794797	29.9430511790894	0	0	26.41098763192581	-2.143224860965133	7.345363192136108	24.17930218169062	0.4220084339051495	-1.509357175753549	0	0	0	0	0	0	-14.86922832029591	0	74.99571044888673	45.00000025622027	0	0	0	-14.86922832029591	0	74.99571044888673	45.00000025622027	0	0
128.140625	-1.977650341056402	-3.969153575113434	156.0196576287204	0	0.9399999999999999	0	-17.75176657752123	-34.03302179046522	-23.92205816189652	0.309747553036326	0.005406114650479647	29.96065345729477	0	0	26.97017737335515	-0.7717377253643675	7.184703476493517	24.04051039118471	0.4195860601860831	-1.167052749617487	0	0	0	0	0	0	-14.86914095179869	0	74.9957065281816	45.00000025622102	0	0	0	-14.86914095179869	0	74.9957065281816	45.00000025622102	0	0
128.1484375	-1.836856422107914	-4.465102660232751	156.2443280714436	0	0.9399999999999999	0	-17.45462101148764	-36.14646576080599	-25.0966997128732	0.3056634380590242	0.005334833397095718	29.96790876179447	0	0	27.29472702635686	0.4039327163627515	7.026112921148323	23.85420713537054	0.4163344549649407	-1.408530819325314	0	0	0	0	0	0	-14.86905279507884	0	74.99570249954469	45.00000025622191	0	0	0	-14.86905279507884	0	74.99570249954469	45.00000025622191	0	0
128.15625	-1.756408675357664	-4.886629812851409	156.4705314367457	0	0.9399999999999999	0	-16.90119963452304	-37.70651724018532	-25.5710657714252	0.4085671137404644	0.007130841350141269	29.97292334726113	0	0	27.39605988839312	1.366074885495099	6.947463470937628	23.48485037746032	0.4098879634249157	-1.520620659662705	0	0	0	0	0	0	-14.86915201047901	0	74.99571054616037	45.00000025621665	0	0	0	-14.86915201047901	0	74.99571054616037	45.00000025621665	0	0
128.1640625	-1.648717712786205	-5.259461305848647	156.6492750288103	0	0.9399999999999999	0	-15.99489314615845	-38.78981531690614	-25.57798218519851	0.792631545220023	0.01383403021925972	29.97604276393767	0	0	27.39169437138492	2.16207657785128	6.906535046536369	22.94822599126607	0.4005221010393324	-1.576297370747083	0	0	0	0	0	0	-14.8692199449754	0	74.99571507374378	45.00000025621419	0	0	0	-14.8692199449754	0	74.99571507374378	45.00000025621419	0	0
128.171875	-1.556106611022724	-5.628236768811947	156.760658866669	0	0.9399999999999999	0	-14.84328592290917	-39.61585931541776	-25.46295919057296	1.505638306498324	0.02627834579254728	29.97772175602957	0	0	27.2428793657431	2.87514261094449	6.773108608811238	22.24818708376879	0.3883041172114409	-1.878488694409583	0	0	0	0	0	0	-14.86927550561743	0	74.99571878650293	45.00000025621218	0	0	0	-14.86927550561743	0	74.99571878650293	45.00000025621218	0	0
128.1796875	-1.35970589050025	-6.017738060023757	156.8769485987773	0	0.9399999999999999	0	-13.48414204055342	-40.19144798266984	-25.42644573543387	2.329874891764842	0.04066398802084301	29.97849008272804	0	0	27.13086704304803	3.528166924730847	6.589308177640183	21.61294674071899	0.3772170816837235	-2.184110662964676	0	0	0	0	0	0	-14.86936630308782	0	74.9957248343475	45.00000025620893	0	0	0	-14.86936630308782	0	74.9957248343475	45.00000025620893	0	0
